<svg version="1.1" id="Capa_1" xmlns="http://www.w3.org/2000/svg" xmlns:xlink="http://www.w3.org/1999/xlink" x="0" y="0" viewBox="0 0 86.97 56.43" xml:space="preserve"><style>.st1{clip-path:url(#SVGID_2_)}</style><path d="M6.2 51.98c.06.13.11.27.16.4.05-.14.11-.27.17-.41l.18-.39 2.45-4.62c.03-.06.06-.1.09-.14.03-.03.07-.06.11-.07.04-.02.08-.02.13-.03.05 0 .11-.01.18-.01h1.16l-.02 8.35H9.46l.01-5.39c0-.1 0-.21.01-.33l.03-.36-2.5 4.73c-.06.11-.13.19-.22.25s-.2.09-.32.09h-.21c-.12 0-.23-.03-.32-.09a.675.675 0 01-.22-.25l-2.51-4.76.03.37c.01.12.01.23.01.34l-.01 5.39H1.89l.01-8.35h1.16c.07 0 .13 0 .18.01.05 0 .09.01.13.03.04.02.08.04.11.08s.07.08.1.14l2.45 4.64c.06.12.12.25.17.38zm14.92-5.23v1.24l-3.65-.01-.01 2.32 2.88.01v1.19l-2.88-.01-.01 2.36 3.65.01v1.24l-5.2-.01.02-8.35 5.2.01zm10.55.03v1.28l-2.48-.01-.02 7.07h-1.53l.02-7.07-2.49-.01v-1.28l6.5.02zm11.61 8.38H42.1c-.13 0-.24-.03-.33-.1a.555.555 0 01-.18-.25l-.61-1.7-3.41-.01-.62 1.7a.51.51 0 01-.18.24c-.09.07-.2.11-.33.11h-1.19l3.26-8.34h1.57l3.2 8.35zM37.95 52h2.63l-.99-2.78c-.05-.12-.09-.27-.15-.44-.05-.17-.11-.35-.16-.55-.05.2-.11.38-.16.55-.05.17-.1.32-.15.44L37.95 52zm15.26 1.22c.08 0 .16.03.22.1l.6.67c-.33.42-.75.74-1.24.96-.49.22-1.08.33-1.76.33-.61 0-1.16-.11-1.65-.32-.49-.21-.9-.51-1.25-.89-.34-.38-.61-.83-.79-1.35s-.27-1.1-.27-1.72c0-.63.11-1.2.31-1.72.21-.52.5-.97.87-1.35.37-.38.82-.67 1.34-.88.52-.21 1.09-.31 1.72-.31.61 0 1.15.1 1.6.3.46.2.85.46 1.17.79l-.51.72c-.03.05-.07.09-.12.12-.05.03-.11.05-.2.05a.5.5 0 01-.27-.1 2.993 2.993 0 00-.88-.46c-.21-.07-.49-.11-.82-.11-.39 0-.74.07-1.07.2-.33.14-.6.33-.84.58-.24.25-.42.56-.55.93-.13.36-.2.77-.2 1.23 0 .47.06.89.19 1.25.13.37.31.67.53.93.22.25.49.44.79.58.3.13.63.2.98.2.21 0 .4-.01.57-.03.17-.02.33-.06.47-.11.14-.05.28-.11.41-.19.13-.08.25-.18.38-.29.04-.03.08-.06.12-.08.06-.02.1-.03.15-.03zm12.63 2h-1.18c-.13 0-.24-.03-.33-.1a.555.555 0 01-.18-.25l-.61-1.7-3.41-.01-.62 1.7a.51.51 0 01-.18.24c-.09.07-.2.11-.33.11h-1.19l3.26-8.34h1.57l3.2 8.35zm-5.32-3.16l2.63.01-1-2.78c-.05-.12-.09-.27-.15-.44-.05-.17-.11-.35-.16-.55-.05.2-.11.38-.16.55-.05.17-.1.32-.15.44l-1.01 2.77zm11.13 1.9l3.3.01v1.28l-4.83-.01.02-8.35h1.53l-.02 7.07zm9.31.02l3.3.01v1.28l-4.83-.01.02-8.35h1.53l-.02 7.07z" fill="#000333"/><g id="Ilustración_5_1_"><defs><path id="SVGID_1_" transform="rotate(-89.844 35.045 17.642)" d="M18.49-15.36h33.1v66h-33.1z"/></defs><clipPath id="SVGID_2_"><use xlink:href="#SVGID_1_" overflow="visible"/></clipPath><g class="st1"><defs><path id="SVGID_3_" d="M3.62 1C-.47 1 4.94 2.69 4.94 2.69c.73.48 3.58 1.9 6.93 6.48 2.79 3.81 5.94 9.82 8.5 19.31 3.58 4.43 5.93 5.69 8.7 5.69 2.77.01 3.06-1.52 3.06-2.62 0-.91-3.83-20.14-17.22-27.61C11.97 2.3 8.58 1.23 4.66 1.03c-.36-.01-.68-.02-.96-.03h-.08z"/></defs><clipPath id="SVGID_4_"><use xlink:href="#SVGID_3_" overflow="visible"/></clipPath><linearGradient id="SVGID_5_" gradientUnits="userSpaceOnUse" x1="-253.987" y1="-71.91" x2="-252.987" y2="-71.91" gradientTransform="scale(111.8171 -111.8171) rotate(-59.404 -63.869 -258.5)"><stop offset="0" stop-color="#fff"/><stop offset=".046" stop-color="#bfece5"/><stop offset=".12" stop-color="#5dcebe"/><stop offset=".122" stop-color="#5dcdbe"/><stop offset=".263" stop-color="#4599ce"/><stop offset=".369" stop-color="#3679d7"/><stop offset=".427" stop-color="#316ddb"/><stop offset=".51" stop-color="#3955cc"/><stop offset=".627" stop-color="#423bba"/><stop offset=".746" stop-color="#4928ae"/><stop offset=".869" stop-color="#4d1da6"/><stop offset="1" stop-color="#4e19a4"/></linearGradient><path clip-path="url(#SVGID_4_)" fill="url(#SVGID_5_)" d="M23.7-13.3l22.99 38.87L7.94 48.48-15.04 9.61z"/></g><g class="st1"><defs><path id="SVGID_6_" d="M21.56 1.05c-4.09 0 1.32 1.69 1.32 1.69 1.34.88 9.79 4.92 15.43 25.79 3.58 4.43 5.93 5.69 8.71 5.69 2.76.01 3.05-1.52 3.05-2.62 0-1.11-5.71-29.45-27.46-30.53-.37-.02-.69-.03-.97-.03l-.08.01z"/></defs><clipPath id="SVGID_7_"><use xlink:href="#SVGID_6_" overflow="visible"/></clipPath><linearGradient id="SVGID_8_" gradientUnits="userSpaceOnUse" x1="-253.987" y1="-71.91" x2="-252.987" y2="-71.91" gradientTransform="scale(111.8171 -111.8171) rotate(-59.404 -63.748 -258.57)"><stop offset="0" stop-color="#fff"/><stop offset=".046" stop-color="#bfece5"/><stop offset=".12" stop-color="#5dcebe"/><stop offset=".122" stop-color="#5dcdbe"/><stop offset=".263" stop-color="#4599ce"/><stop offset=".369" stop-color="#3679d7"/><stop offset=".427" stop-color="#316ddb"/><stop offset=".51" stop-color="#3955cc"/><stop offset=".627" stop-color="#423bba"/><stop offset=".746" stop-color="#4928ae"/><stop offset=".869" stop-color="#4d1da6"/><stop offset="1" stop-color="#4e19a4"/></linearGradient><path clip-path="url(#SVGID_7_)" fill="url(#SVGID_8_)" d="M41.64-13.25l22.99 38.87-38.75 22.91L2.9 9.66z"/></g><g class="st1"><defs><path id="SVGID_9_" d="M39.5 1.1c-4.09 0 1.32 1.69 1.32 1.69 1.35.88 9.79 4.92 15.43 25.79 1.44 1.78 2.67 3.04 3.82 3.92 1.72 1.32 3.22 1.77 4.89 1.78 2.76.01 3.05-1.52 3.05-2.62 0-.38-.68-3.99-2.44-8.61v-.01c-3.39-8.79-10.76-21.2-25.02-21.91-.37-.02-.69-.03-.97-.03h-.08z"/></defs><clipPath id="SVGID_10_"><use xlink:href="#SVGID_9_" overflow="visible"/></clipPath><linearGradient id="SVGID_11_" gradientUnits="userSpaceOnUse" x1="-253.987" y1="-71.91" x2="-252.987" y2="-71.91" gradientTransform="scale(111.8171 -111.8171) rotate(-59.404 -63.627 -258.639)"><stop offset="0" stop-color="#fff"/><stop offset=".046" stop-color="#bfece5"/><stop offset=".12" stop-color="#5dcebe"/><stop offset=".122" stop-color="#5dcdbe"/><stop offset=".263" stop-color="#4599ce"/><stop offset=".369" stop-color="#3679d7"/><stop offset=".427" stop-color="#316ddb"/><stop offset=".51" stop-color="#3955cc"/><stop offset=".627" stop-color="#423bba"/><stop offset=".746" stop-color="#4928ae"/><stop offset=".869" stop-color="#4d1da6"/><stop offset="1" stop-color="#4e19a4"/></linearGradient><path clip-path="url(#SVGID_10_)" fill="url(#SVGID_11_)" d="M59.58-13.2l22.99 38.87-38.75 22.91L20.84 9.71z"/></g></g></svg>