<svg xmlns="http://www.w3.org/2000/svg" viewBox="0 0 77.88 39.06"><linearGradient id="a" gradientUnits="userSpaceOnUse" x1="-2.25" y1="-18.902" x2="65.215" y2="94.484"><stop offset="0" stop-color="#fff"/><stop offset=".044" stop-color="#c2ede7"/><stop offset=".12" stop-color="#5dcebe"/><stop offset=".261" stop-color="#459ace"/><stop offset=".368" stop-color="#3779d7"/><stop offset=".427" stop-color="#316ddb"/><stop offset=".51" stop-color="#3956cc"/><stop offset=".627" stop-color="#423bba"/><stop offset=".746" stop-color="#4928ae"/><stop offset=".869" stop-color="#4d1da6"/><stop offset="1" stop-color="#4e19a4"/></linearGradient><path d="M35.54 35.96c0 1.3-.33 3.1-3.6 3.1-3.26 0-6.04-1.47-10.28-6.69-3.05-11.19-6.79-18.27-10.09-22.76-3.97-5.39-7.34-7.06-8.2-7.62 0 0-7.35-2.28-.33-1.96 4.62.22 8.63 1.47 12.09 3.41 15.82 8.77 20.41 31.45 20.41 32.52z" fill="url(#a)"/><linearGradient id="b" gradientUnits="userSpaceOnUse" x1="13.385" y1="-28.205" x2="80.849" y2="85.181"><stop offset="0" stop-color="#fff"/><stop offset=".044" stop-color="#c2ede7"/><stop offset=".12" stop-color="#5dcebe"/><stop offset=".261" stop-color="#459ace"/><stop offset=".368" stop-color="#3779d7"/><stop offset=".427" stop-color="#316ddb"/><stop offset=".51" stop-color="#3956cc"/><stop offset=".627" stop-color="#423bba"/><stop offset=".746" stop-color="#4928ae"/><stop offset=".869" stop-color="#4d1da6"/><stop offset="1" stop-color="#4e19a4"/></linearGradient><path d="M56.71 35.96c0 1.3-.33 3.1-3.59 3.1-3.27 0-6.05-1.47-10.29-6.69C36.11 7.76 26.12 3.02 24.54 1.99c0 0-7.35-2.28-.33-1.96 25.67 1.2 32.5 34.62 32.5 35.93z" fill="url(#b)"/><linearGradient id="c" gradientUnits="userSpaceOnUse" x1="29.023" y1="-37.509" x2="96.487" y2="75.876"><stop offset="0" stop-color="#fff"/><stop offset=".044" stop-color="#c2ede7"/><stop offset=".12" stop-color="#5dcebe"/><stop offset=".261" stop-color="#459ace"/><stop offset=".368" stop-color="#3779d7"/><stop offset=".427" stop-color="#316ddb"/><stop offset=".51" stop-color="#3956cc"/><stop offset=".627" stop-color="#423bba"/><stop offset=".746" stop-color="#4928ae"/><stop offset=".869" stop-color="#4d1da6"/><stop offset="1" stop-color="#4e19a4"/></linearGradient><path d="M77.88 35.96c0 1.3-.33 3.1-3.59 3.1-1.96 0-3.74-.53-5.77-2.08-1.36-1.03-2.82-2.52-4.52-4.61C57.28 7.76 47.3 3.02 45.71 1.99c0 0-7.35-2.28-.33-1.96C62.21.82 70.94 15.44 74.97 25.8v.01c2.1 5.44 2.91 9.7 2.91 10.15z" fill="url(#c)"/></svg>